<?xml version="1.0" encoding="UTF-8" standalone="no"?>
<!DOCTYPE svg PUBLIC "-//W3C//DTD SVG 1.1//EN" "http://www.w3.org/Graphics/SVG/1.1/DTD/svg11.dtd">
<svg width="100%" height="100%" viewBox="0 0 50 50" version="1.1" xmlns="http://www.w3.org/2000/svg" xmlns:xlink="http://www.w3.org/1999/xlink" xml:space="preserve" xmlns:serif="http://www.serif.com/" style="fill-rule:evenodd;clip-rule:evenodd;stroke-linejoin:round;stroke-miterlimit:2;">
    <g transform="matrix(1,0,0,1,-689.182,-829.668)">
        <g transform="matrix(0.0952405,0,0,0.0952405,626.182,753.288)">
            <circle cx="923.982" cy="1064.47" r="262.493" style="fill:white;"/>
        </g>
        <g transform="matrix(0.106474,0,0,0.106474,617.55,743.535)">
            <g transform="matrix(1,0,0,1,0,5.12147)">
                <g transform="matrix(1,0,0,1,5.89501,156.105)">
                    <circle cx="797.09" cy="828.505" r="41.921" style="fill:rgb(59,59,59);"/>
                </g>
                <g transform="matrix(1,0,0,1,215.067,156.105)">
                    <circle cx="797.09" cy="828.505" r="41.921" style="fill:rgb(59,59,59);"/>
                </g>
            </g>
            <g transform="matrix(1,0,0,1,110.481,87.2676)">
                <circle cx="797.09" cy="828.505" r="41.921" style="fill:rgb(59,59,59);"/>
            </g>
            <g transform="matrix(1,0,0,1,110.481,343.248)">
                <circle cx="797.09" cy="828.505" r="41.921" style="fill:rgb(59,59,59);"/>
            </g>
            <g transform="matrix(1,0,0,1,0,-5.78304)">
                <g transform="matrix(1,0,0,1,5.89501,284.712)">
                    <circle cx="797.09" cy="828.505" r="41.921" style="fill:rgb(59,59,59);"/>
                </g>
                <g transform="matrix(1,0,0,1,215.067,284.712)">
                    <circle cx="797.09" cy="828.505" r="41.921" style="fill:rgb(59,59,59);"/>
                </g>
            </g>
        </g>
    </g>
</svg>
